HIERARCHY
ROOT Hips
{
	OFFSET 0.000000 0.000000 0.000000 
	CHANNELS 6 Xposition Yposition Zposition Zrotation Yrotation Xrotation
	JOINT LeftUpLeg
	{
		OFFSET 1.363060 -1.794630 0.839290 
		CHANNELS 3 Zrotation Yrotation Xrotation
		JOINT LeftLeg
		{
			OFFSET 2.448110 -6.726130 0.000000 
			CHANNELS 3 Zrotation Yrotation Xrotation
			JOINT LeftFoot
			{
				OFFSET 2.562200 -7.039590 0.000000 
				CHANNELS 3 Zrotation Yrotation Xrotation
				JOINT LeftToeBase
				{
					OFFSET 0.157640 -0.433110 2.322550 
					CHANNELS 3 Zrotation Yrotation Xrotation
					End Site
					{
						OFFSET 0.000000 0.000000 0.000000 
					}
				}
			}
		}
	}
	JOINT RightUpLeg
	{
		OFFSET -1.305520 -1.794630 0.839290 
		CHANNELS 3 Zrotation Yrotation Xrotation
		JOINT RightLeg
		{
			OFFSET -2.542530 -6.985550 0.000000 
			CHANNELS 3 Zrotation Yrotation Xrotation
			JOINT RightFoot
			{
				OFFSET -2.568260 -7.056230 0.000000 
				CHANNELS 3 Zrotation Yrotation Xrotation
				JOINT RightToeBase
				{
					OFFSET -0.164730 -0.452590 2.363150 
					CHANNELS 3 Zrotation Yrotation Xrotation
					End Site
					{
						OFFSET 0.000000 0.000000 0.000000 
					}
				}
			}
		}
	}
	JOINT Spine
	{
		OFFSET 0.028270 2.035590 -0.193380 
		CHANNELS 3 Zrotation Yrotation Xrotation
		JOINT Spine1
		{
			OFFSET 0.056720 2.048850 -0.042750 
			CHANNELS 3 Zrotation Yrotation Xrotation
			JOINT Neck1
			{
				OFFSET -0.054170 1.746240 0.172020 
				CHANNELS 3 Zrotation Yrotation Xrotation
				JOINT Head
				{
					OFFSET 0.104070 1.761360 -0.123970 
					CHANNELS 3 Zrotation Yrotation Xrotation
					End Site
					{
						OFFSET 0.000000 0.000000 0.000000 
					}
				}
			}
			JOINT LeftArm
			{
				OFFSET 3.362410 1.200890 -0.311210 
				CHANNELS 3 Zrotation Yrotation Xrotation
				JOINT LeftForeArm
				{
					OFFSET 4.983000 -0.000000 -0.000000 
					CHANNELS 3 Zrotation Yrotation Xrotation
					JOINT LeftHand
					{
						OFFSET 3.483560 -0.000000 -0.000000 
						CHANNELS 3 Zrotation Yrotation Xrotation
						JOINT LeftHandIndex1
						{
							OFFSET 0.715260 -0.000000 -0.000000 
							CHANNELS 3 Zrotation Yrotation Xrotation
							End Site
							{
								OFFSET 0.000000 0.000000 0.000000 
							}
						}
					}
				}
			}
			JOINT RightArm
			{
				OFFSET -3.136600 1.374050 -0.404650 
				CHANNELS 3 Zrotation Yrotation Xrotation
				JOINT RightForeArm
				{
					OFFSET -5.241900 -0.000000 -0.000000 
					CHANNELS 3 Zrotation Yrotation Xrotation
					JOINT RightHand
					{
						OFFSET -3.444170 -0.000000 -0.000000 
						CHANNELS 3 Zrotation Yrotation Xrotation
						JOINT RightHandIndex1
						{
							OFFSET -0.622530 -0.000000 -0.000000 
							CHANNELS 3 Zrotation Yrotation Xrotation
							End Site
							{
								OFFSET 0.000000 0.000000 0.000000 
							}
						}
					}
				}
			}
		}
	}
}
MOTION
Frames: 12
Frame Time: 0.041667
-7.886800 27.387300 -0.280400 -160.869000 88.694600 -155.958000 -17.235100 -3.486200 -9.632300 1.749400 8.323400 23.700600 1.545000 -5.520600 -22.354000 0.079100 -1.814500 -4.993400 17.852700 6.083600 -6.885200 -1.687000 -8.181300 23.266000 -0.758100 -7.662100 -20.962300 -0.124300 2.272800 -6.260200 0.452500 -0.518700 0.603500 1.612800 -0.303800 3.571800 -1.248300 0.404600 18.586900 -0.732600 0.334600 7.277000 -86.641600 -8.267800 7.202100 8.651500 -14.603300 -1.110600 0.000000 0.000000 10.346500 -7.125000 0.000000 0.000000 89.174300 0.100100 18.059000 -11.232500 18.643800 -1.849600 0.000000 0.000000 4.378300 7.125000 0.000000 0.000000 
-7.886900 27.387400 -0.278300 -169.508000 88.656500 -164.600000 -17.416600 -3.524000 -9.574200 1.731000 8.281700 23.572900 1.528100 -5.585100 -22.220600 0.069800 -1.704200 -4.688900 17.663100 6.189200 -6.855000 -1.702000 -8.215600 23.370900 -0.786200 -7.563800 -21.151200 -0.072200 1.733400 -4.769500 0.412300 -0.566900 0.645100 1.673800 -0.332600 3.660200 -1.267700 0.436300 18.460700 -0.732500 0.345000 7.226500 -86.608200 -8.649300 7.057500 8.526600 -14.402900 -1.079300 0.000000 0.000000 10.973900 -7.125000 0.000000 0.000000 89.142000 0.131200 17.930400 -11.156200 18.527300 -1.825300 0.000000 0.000000 4.716500 7.125000 0.000000 0.000000 
-7.891500 27.391100 -0.276700 -169.487000 88.869900 -164.506000 -17.463200 -3.494300 -9.670700 1.730900 8.281600 23.572700 1.533200 -5.588800 -22.259000 0.056600 -1.534500 -4.220900 17.572400 6.376500 -6.910000 -1.701100 -8.213600 23.364900 -0.825300 -7.189400 -21.229000 -0.033100 1.173600 -3.226700 0.391400 -0.504000 0.641600 1.679300 -0.302200 3.689900 -1.334400 0.488700 18.719300 -0.753400 0.368100 7.343900 -86.534600 -8.909300 7.356900 8.496800 -14.354900 -1.071900 0.000000 0.000000 11.113900 -7.125000 0.000000 0.000000 89.161900 0.147400 17.729300 -11.031700 18.336800 -1.785900 0.000000 0.000000 5.196300 7.125000 0.000000 0.000000 
-7.896000 27.391200 -0.276500 -166.174000 88.917700 -161.200000 -17.406100 -3.283000 -9.753800 1.731900 8.283700 23.579100 1.528000 -5.690200 -22.210900 0.066300 -1.660800 -4.569200 17.627100 6.301000 -6.976200 -1.699900 -8.210800 23.356300 -0.799400 -7.300400 -21.070400 -0.073300 1.746700 -4.806200 0.360800 -0.488700 0.611700 1.596100 -0.291400 3.631500 -1.310100 0.480900 18.959300 -0.750100 0.371800 7.433700 -86.372000 -8.968600 8.147000 8.552300 -14.444100 -1.085700 0.000000 0.000000 10.789200 -7.125000 0.000000 0.000000 89.264300 0.116300 17.469500 -10.972700 18.246400 -1.767400 0.000000 0.000000 5.467900 7.125000 0.000000 0.000000 
-7.897700 27.389200 -0.275700 -159.161000 88.847600 -154.248000 -17.240000 -3.195200 -9.752400 1.737300 8.296000 23.616900 1.528200 -5.684100 -22.213100 0.077500 -1.795800 -4.941600 17.821500 6.208900 -6.935000 -1.694300 -8.198100 23.317300 -0.760700 -7.572700 -20.915700 -0.126900 2.296500 -6.325900 0.374800 -0.485400 0.594000 1.513300 -0.285600 3.573700 -1.232500 0.439600 18.965100 -0.721300 0.357000 7.424400 -86.313600 -9.088100 8.372600 8.533600 -14.414100 -1.081100 0.000000 0.000000 11.035000 -7.125000 0.000000 0.000000 89.340800 0.015800 17.270100 -10.985100 18.265400 -1.771300 0.000000 0.000000 5.646700 7.125000 0.000000 0.000000 
-7.899300 27.388800 -0.273800 -152.536000 88.825200 -147.635000 -17.091500 -3.378900 -9.724500 1.746400 8.316600 23.679800 1.538400 -5.531900 -22.303000 0.058600 -1.561700 -4.295900 17.973200 6.186500 -6.920700 -1.686700 -8.180400 23.263400 -0.755800 -7.602700 -20.893400 -0.135800 2.375300 -6.544100 0.398300 -0.496200 0.600900 1.456000 -0.288600 3.581900 -1.231400 0.450200 19.008800 -0.714700 0.359800 7.449200 -86.251200 -9.204300 8.904400 8.565200 -14.464900 -1.089000 0.000000 0.000000 10.817300 -7.125000 0.000000 0.000000 89.319800 -0.167500 17.816200 -11.200100 18.594300 -1.839200 0.000000 0.000000 4.921100 7.125000 0.000000 0.000000 
-7.902400 27.388800 -0.273100 -148.104000 88.922500 -143.195000 -17.072300 -3.579000 -9.698700 1.754800 8.335500 23.737800 1.553400 -5.331300 -22.435600 0.044800 -1.366800 -3.758600 17.981200 6.151300 -6.959400 -1.678300 -8.161200 23.204900 -0.757500 -7.503100 -20.829800 -0.151500 2.508300 -6.912600 0.385900 -0.470200 0.602200 1.422100 -0.274600 3.577800 -1.322100 0.396600 19.148100 -0.771200 0.336700 7.509500 -86.079800 -9.218600 10.180100 8.697300 -14.676700 -1.122200 0.000000 0.000000 9.833800 -7.125000 0.000000 0.000000 89.295900 -0.355000 18.272600 -11.323300 18.782000 -1.878700 0.000000 0.000000 4.340100 7.125000 0.000000 0.000000 
-7.906000 27.388900 -0.273300 -136.712000 89.055700 -131.804000 -17.024500 -3.695100 -9.646700 1.761400 8.350300 23.783300 1.576200 -5.059700 -22.635800 0.048200 -1.416200 -3.894700 18.029400 6.192700 -6.981400 -1.672800 -8.148300 23.165500 -0.760400 -7.328300 -20.720300 -0.149700 2.493100 -6.870500 0.383500 -0.363400 0.595700 1.372800 -0.219300 3.555500 -1.329700 0.428100 19.119600 -0.766700 0.347900 7.513100 -85.977600 -9.325400 10.983200 8.751700 -14.763800 -1.136000 0.000000 0.000000 9.428800 -7.125000 0.000000 0.000000 89.348000 -0.427400 18.178100 -11.283600 18.721600 -1.865900 0.000000 0.000000 4.360400 7.125000 0.000000 0.000000 
-7.904700 27.388900 -0.273000 -142.675000 88.889200 -137.808000 -16.967800 -3.642200 -9.639700 1.764600 8.357600 23.805500 1.567300 -5.272300 -22.545600 0.050800 -1.454100 -3.999200 18.097200 6.149300 -6.877200 -1.668900 -8.139300 23.138100 -0.755500 -7.438300 -20.759200 -0.133800 2.357400 -6.494400 0.368900 -0.421600 0.612100 1.314800 -0.247200 3.583900 -1.346400 0.285100 19.007500 -0.805300 0.286100 7.450200 -85.943400 -9.513100 11.235500 8.716000 -14.706700 -1.126900 0.000000 0.000000 9.566800 -7.125000 0.000000 0.000000 89.429200 -0.421000 17.871600 -11.188000 18.575800 -1.835400 0.000000 0.000000 4.613500 7.125000 0.000000 0.000000 
-7.907800 27.385500 -0.273100 -140.510000 88.897600 -135.832000 -16.952600 -3.537300 -9.467900 1.767400 8.363800 23.824700 1.564100 -5.286800 -22.520500 0.047900 -1.412500 -3.884500 18.133500 6.042500 -6.692500 -1.666400 -8.133600 23.120500 -0.771700 -7.313400 -20.817300 -0.143000 2.437200 -6.715500 0.433300 -0.443400 0.665200 1.392500 -0.259300 3.547600 -1.243700 0.491400 19.059400 -0.696400 0.369700 7.489200 -86.037000 -9.642800 11.320300 8.709500 -14.696300 -1.125300 0.000000 0.000000 9.624900 -7.125000 0.000000 0.000000 89.304100 -0.445800 17.914000 -11.180600 18.564600 -1.833000 0.000000 0.000000 4.590500 7.125000 0.000000 0.000000 
-7.909200 27.387800 -0.270700 -141.234000 88.817000 -136.436000 -16.872100 -3.513400 -9.661000 1.769300 8.368100 23.837900 1.549800 -5.398200 -22.401800 0.046600 -1.392800 -3.830300 18.182200 6.045500 -6.829300 -1.663900 -8.127800 23.102800 -0.767000 -7.342100 -20.794400 -0.153200 2.522000 -6.950600 0.463500 -0.460300 0.667800 1.425900 -0.269000 3.646700 -1.198500 0.348900 19.094700 -0.697000 0.306400 7.511900 -86.079000 -9.822600 11.629900 8.745000 -14.753100 -1.134300 0.000000 0.000000 9.504000 -7.125000 0.000000 0.000000 89.228100 -0.485300 18.071800 -11.229200 18.638700 -1.848500 0.000000 0.000000 4.402300 7.125000 0.000000 0.000000 
-7.912100 27.388100 -0.268700 -141.176000 88.764300 -136.372000 -16.813300 -3.419800 -9.748800 1.771900 8.373900 23.855500 1.542400 -5.514000 -22.334700 0.050400 -1.448700 -3.984400 18.223700 5.978700 -6.879100 -1.662500 -8.124600 23.093200 -0.762300 -7.329000 -20.739000 -0.148800 2.485900 -6.850400 0.473700 -0.470400 0.728500 1.433200 -0.275500 3.748900 -1.218300 0.257600 19.147500 -0.721300 0.263900 7.555600 -86.150500 -10.067000 11.766900 8.797300 -14.836800 -1.147700 0.000000 0.000000 9.487100 -7.125000 0.000000 0.000000 89.200300 -0.387900 18.014400 -11.181300 18.565600 -1.833200 0.000000 0.000000 4.522500 7.125000 0.000000 0.000000 
